<svg xmlns="http://www.w3.org/2000/svg" id="outputsvg" width="592" height="434" class="img-fluid" viewBox="1798 1580 2192 2460" style="transform:matrix(.3,0,0,.3,4.38705,-7.25152);transform-origin:50% 50%;cursor:move;max-height:none;transition:none 0s ease 0s"><g id="l7mupSkJhzF0QhJh82M6Hgo" fill="#1CE394"><g><path id="pGgB35BKt" d="M1800 4035 c0 -3 11 -22 23 -43 13 -20 111 -188 217 -372 106 -184 232 -402 280 -485 47 -82 111 -193 140 -245 30 -52 104 -180 165 -285 61 -104 145 -250 186 -322 41 -73 79 -133 84 -133 9 0 116 173 130 212 4 10 -1 32 -12 50 -19 31 -142 240 -398 673 -160 270 -415 713 -415 720 0 3 313 5 695 5 382 0 695 -3 695 -7 0 -8 -23 -48 -197 -348 -113 -195 -167 -295 -161 -300 10 -9 176 -95 184 -95 5 0 19 15 31 33 41 64 543 935 543 942 0 3 -493 5 -1095 5 -602 0 -1095 -2 -1095 -5z"/><path id="ppQGlKrRw" d="M2830 3384 c-34 -53 -65 -104 -67 -114 -3 -11 50 -112 138 -261 78 -134 188 -323 244 -419 56 -96 176 -303 268 -460 91 -157 169 -293 172 -303 7 -16 -32 -17 -689 -17 -383 0 -696 3 -696 6 0 4 49 90 108 193 141 240 182 315 182 329 0 6 -39 36 -87 68 l-86 57 -21 -26 c-12 -15 -83 -133 -158 -264 -75 -131 -166 -290 -203 -353 -37 -63 -83 -143 -102 -177 l-35 -63 1096 0 c603 0 1096 2 1096 5 0 5 -77 140 -308 540 -42 72 -99 171 -127 220 -49 85 -97 169 -484 840 -89 154 -166 284 -170 288 -5 5 -36 -35 -71 -89z"/></g></g></svg>